<mxfile host="app.diagrams.net" modified="2020-03-29T12:01:51.703Z" agent="Mozilla/5.0 (Windows NT 10.0; WOW64) AppleWebKit/537.36 (KHTML, like Gecko) Chrome/70.0.3538.25 Safari/537.36 Core/1.70.3706.400 SLBrowser/10.0.3974.400" etag="7NyrTnGP44BipraXY6Hl" version="12.9.3" type="github">
  <diagram id="j6NRjxbkbpJI79oGe0iM" name="第 1 页">
    <mxGraphModel dx="925" dy="508" grid="1" gridSize="10" guides="1" tooltips="1" connect="1" arrows="1" fold="1" page="1" pageScale="1" pageWidth="827" pageHeight="1169" math="0" shadow="0">
      <root>
        <mxCell id="0" />
        <mxCell id="1" parent="0" />
        <mxCell id="Zp8qZqB0FbRDcI97wTCX-1" value="" style="rounded=0;whiteSpace=wrap;html=1;dashed=1;strokeColor=#CCCCCC;" vertex="1" parent="1">
          <mxGeometry x="20" y="270" width="770" height="170" as="geometry" />
        </mxCell>
        <mxCell id="Zp8qZqB0FbRDcI97wTCX-17" style="edgeStyle=orthogonalEdgeStyle;rounded=0;orthogonalLoop=1;jettySize=auto;html=1;entryX=0.5;entryY=0;entryDx=0;entryDy=0;strokeColor=#CCCCCC;" edge="1" parent="1" source="Zp8qZqB0FbRDcI97wTCX-2" target="Zp8qZqB0FbRDcI97wTCX-8">
          <mxGeometry relative="1" as="geometry" />
        </mxCell>
        <mxCell id="Zp8qZqB0FbRDcI97wTCX-2" value="系统调用子系统" style="shape=cylinder;whiteSpace=wrap;html=1;boundedLbl=1;backgroundOutline=1;fontStyle=1" vertex="1" parent="1">
          <mxGeometry x="50" y="290" width="60" height="70" as="geometry" />
        </mxCell>
        <mxCell id="Zp8qZqB0FbRDcI97wTCX-18" style="edgeStyle=orthogonalEdgeStyle;rounded=0;orthogonalLoop=1;jettySize=auto;html=1;entryX=0.5;entryY=0;entryDx=0;entryDy=0;strokeColor=#CCCCCC;" edge="1" parent="1" source="Zp8qZqB0FbRDcI97wTCX-3" target="Zp8qZqB0FbRDcI97wTCX-9">
          <mxGeometry relative="1" as="geometry" />
        </mxCell>
        <mxCell id="Zp8qZqB0FbRDcI97wTCX-3" value="进程管理子系统" style="shape=cylinder;whiteSpace=wrap;html=1;boundedLbl=1;backgroundOutline=1;fontStyle=1" vertex="1" parent="1">
          <mxGeometry x="175" y="290" width="60" height="70" as="geometry" />
        </mxCell>
        <mxCell id="Zp8qZqB0FbRDcI97wTCX-19" style="edgeStyle=orthogonalEdgeStyle;rounded=0;orthogonalLoop=1;jettySize=auto;html=1;entryX=0.5;entryY=0;entryDx=0;entryDy=0;strokeColor=#CCCCCC;" edge="1" parent="1" source="Zp8qZqB0FbRDcI97wTCX-4" target="Zp8qZqB0FbRDcI97wTCX-10">
          <mxGeometry relative="1" as="geometry" />
        </mxCell>
        <mxCell id="Zp8qZqB0FbRDcI97wTCX-4" value="内存管理子系统" style="shape=cylinder;whiteSpace=wrap;html=1;boundedLbl=1;backgroundOutline=1;fontStyle=1" vertex="1" parent="1">
          <mxGeometry x="295" y="290" width="60" height="70" as="geometry" />
        </mxCell>
        <mxCell id="Zp8qZqB0FbRDcI97wTCX-20" style="edgeStyle=orthogonalEdgeStyle;rounded=0;orthogonalLoop=1;jettySize=auto;html=1;entryX=0.5;entryY=0;entryDx=0;entryDy=0;strokeColor=#CCCCCC;" edge="1" parent="1" source="Zp8qZqB0FbRDcI97wTCX-5" target="Zp8qZqB0FbRDcI97wTCX-11">
          <mxGeometry relative="1" as="geometry" />
        </mxCell>
        <mxCell id="Zp8qZqB0FbRDcI97wTCX-5" value="文件&lt;br&gt;子系统" style="shape=cylinder;whiteSpace=wrap;html=1;boundedLbl=1;backgroundOutline=1;fontStyle=1" vertex="1" parent="1">
          <mxGeometry x="420" y="290" width="60" height="70" as="geometry" />
        </mxCell>
        <mxCell id="Zp8qZqB0FbRDcI97wTCX-21" style="edgeStyle=orthogonalEdgeStyle;rounded=0;orthogonalLoop=1;jettySize=auto;html=1;entryX=0.5;entryY=0;entryDx=0;entryDy=0;strokeColor=#CCCCCC;" edge="1" parent="1" source="Zp8qZqB0FbRDcI97wTCX-6" target="Zp8qZqB0FbRDcI97wTCX-12">
          <mxGeometry relative="1" as="geometry" />
        </mxCell>
        <mxCell id="Zp8qZqB0FbRDcI97wTCX-6" value="输入输出子系统" style="shape=cylinder;whiteSpace=wrap;html=1;boundedLbl=1;backgroundOutline=1;fontStyle=1" vertex="1" parent="1">
          <mxGeometry x="545" y="290" width="60" height="70" as="geometry" />
        </mxCell>
        <mxCell id="Zp8qZqB0FbRDcI97wTCX-22" style="edgeStyle=orthogonalEdgeStyle;rounded=0;orthogonalLoop=1;jettySize=auto;html=1;entryX=0.5;entryY=0;entryDx=0;entryDy=0;strokeColor=#CCCCCC;" edge="1" parent="1" source="Zp8qZqB0FbRDcI97wTCX-7" target="Zp8qZqB0FbRDcI97wTCX-13">
          <mxGeometry relative="1" as="geometry" />
        </mxCell>
        <mxCell id="Zp8qZqB0FbRDcI97wTCX-7" value="网络&lt;br&gt;子系统" style="shape=cylinder;whiteSpace=wrap;html=1;boundedLbl=1;backgroundOutline=1;fontStyle=1" vertex="1" parent="1">
          <mxGeometry x="675" y="290" width="60" height="70" as="geometry" />
        </mxCell>
        <mxCell id="Zp8qZqB0FbRDcI97wTCX-8" value="&lt;span style=&quot;color: rgb(51 , 51 , 51) ; font-family: &amp;#34;open sans&amp;#34; , &amp;#34;clear sans&amp;#34; , &amp;#34;helvetica neue&amp;#34; , &amp;#34;helvetica&amp;#34; , &amp;#34;arial&amp;#34; , sans-serif ; white-space: pre-wrap ; background-color: rgb(255 , 255 , 255)&quot;&gt;&lt;font style=&quot;font-size: 12px&quot;&gt;操作系统的功能调用的统一入口&lt;/font&gt;&lt;/span&gt;" style="rounded=1;whiteSpace=wrap;html=1;dashed=1;" vertex="1" parent="1">
          <mxGeometry x="30" y="390" width="100" height="40" as="geometry" />
        </mxCell>
        <mxCell id="Zp8qZqB0FbRDcI97wTCX-9" value="&lt;span style=&quot;color: rgb(51 , 51 , 51) ; font-family: &amp;#34;open sans&amp;#34; , &amp;#34;clear sans&amp;#34; , &amp;#34;helvetica neue&amp;#34; , &amp;#34;helvetica&amp;#34; , &amp;#34;arial&amp;#34; , sans-serif ; white-space: pre-wrap ; background-color: rgb(255 , 255 , 255)&quot;&gt;&lt;font style=&quot;font-size: 12px&quot;&gt;对执行的程序进行生命周期和资源管理&lt;/font&gt;&lt;/span&gt;" style="rounded=1;whiteSpace=wrap;html=1;dashed=1;" vertex="1" parent="1">
          <mxGeometry x="150" y="390" width="110" height="40" as="geometry" />
        </mxCell>
        <mxCell id="Zp8qZqB0FbRDcI97wTCX-10" value="&lt;span style=&quot;color: rgb(51 , 51 , 51) ; font-family: &amp;#34;open sans&amp;#34; , &amp;#34;clear sans&amp;#34; , &amp;#34;helvetica neue&amp;#34; , &amp;#34;helvetica&amp;#34; , &amp;#34;arial&amp;#34; , sans-serif ; white-space: pre-wrap ; background-color: rgb(255 , 255 , 255)&quot;&gt;&lt;font style=&quot;font-size: 12px&quot;&gt;对操作系统的内存进行管理、分配、回收、隔离&lt;/font&gt;&lt;/span&gt;" style="rounded=1;whiteSpace=wrap;html=1;dashed=1;" vertex="1" parent="1">
          <mxGeometry x="270" y="390" width="110" height="40" as="geometry" />
        </mxCell>
        <mxCell id="Zp8qZqB0FbRDcI97wTCX-11" value="&lt;span style=&quot;color: rgb(51 , 51 , 51) ; font-family: &amp;#34;open sans&amp;#34; , &amp;#34;clear sans&amp;#34; , &amp;#34;helvetica neue&amp;#34; , &amp;#34;helvetica&amp;#34; , &amp;#34;arial&amp;#34; , sans-serif ; white-space: pre-wrap ; background-color: rgb(255 , 255 , 255)&quot;&gt;&lt;font style=&quot;font-size: 12px&quot;&gt;对文件进行管理&lt;/font&gt;&lt;/span&gt;" style="rounded=1;whiteSpace=wrap;html=1;dashed=1;" vertex="1" parent="1">
          <mxGeometry x="395" y="390" width="110" height="40" as="geometry" />
        </mxCell>
        <mxCell id="Zp8qZqB0FbRDcI97wTCX-12" value="&lt;span style=&quot;color: rgb(51 , 51 , 51) ; font-family: &amp;#34;open sans&amp;#34; , &amp;#34;clear sans&amp;#34; , &amp;#34;helvetica neue&amp;#34; , &amp;#34;helvetica&amp;#34; , &amp;#34;arial&amp;#34; , sans-serif ; white-space: pre-wrap ; background-color: rgb(255 , 255 , 255)&quot;&gt;&lt;font style=&quot;font-size: 12px&quot;&gt;对输入输出设备进行管理&lt;/font&gt;&lt;/span&gt;" style="rounded=1;whiteSpace=wrap;html=1;dashed=1;" vertex="1" parent="1">
          <mxGeometry x="520" y="390" width="110" height="40" as="geometry" />
        </mxCell>
        <mxCell id="Zp8qZqB0FbRDcI97wTCX-13" value="&lt;span style=&quot;color: rgb(51 , 51 , 51) ; font-family: &amp;#34;open sans&amp;#34; , &amp;#34;clear sans&amp;#34; , &amp;#34;helvetica neue&amp;#34; , &amp;#34;helvetica&amp;#34; , &amp;#34;arial&amp;#34; , sans-serif ; white-space: pre-wrap ; background-color: rgb(255 , 255 , 255)&quot;&gt;&lt;font style=&quot;font-size: 12px&quot;&gt;网络协议和收发网络包&lt;/font&gt;&lt;/span&gt;" style="rounded=1;whiteSpace=wrap;html=1;dashed=1;" vertex="1" parent="1">
          <mxGeometry x="650" y="390" width="110" height="40" as="geometry" />
        </mxCell>
      </root>
    </mxGraphModel>
  </diagram>
</mxfile>
